<!-- Effect family marks. Generated by `cargo xtask docs`. Edit spec/ instead. -->
<svg xmlns="http://www.w3.org/2000/svg" viewBox="0 0 646 199" width="646" height="199" role="img" aria-label="The nine effect family marks, as strokes and as pixels">
<style>
.mark { fill: none; stroke: #2b2f38; stroke-width: 2; stroke-linecap: round; stroke-linejoin: round; }
.mark .dot { fill: #2b2f38; stroke: none; }
.small { stroke-width: 1.4; }
.lit { fill: #2b2f38; }
.unlit { fill: #e7e9ed; }
.name { font: 500 9px system-ui, sans-serif; fill: #6b7280; text-anchor: middle; }
@media (prefers-color-scheme: dark) {
.mark { stroke: #d8dbe2; }
.mark .dot { fill: #d8dbe2; }
.lit { fill: #d8dbe2; }
.unlit { fill: #31353d; }
.name { fill: #9aa2b1; }
}
</style>
  <g class="mark">
    <circle class="dot" cx="24.10" cy="43.00" r="3.24" />
    <path d="M 30.92 29.89 A 16.20 16.20 0 0 1 30.92 56.11" />
    <path d="M 47.20 21.66 A 33.48 33.48 0 0 1 47.20 64.34" />
  </g>
  <g class="mark small">
    <circle class="dot" cx="37.40" cy="88.00" r="0.96" />
    <path d="M 39.42 84.12 A 4.80 4.80 0 0 1 39.42 91.88" />
    <path d="M 44.24 81.68 A 9.92 9.92 0 0 1 44.24 94.32" />
  </g>
  <rect class="unlit" x="22.0" y="110.0" width="5.0" height="5.0" />
  <rect class="unlit" x="28.0" y="110.0" width="5.0" height="5.0" />
  <rect class="unlit" x="34.0" y="110.0" width="5.0" height="5.0" />
  <rect class="unlit" x="40.0" y="110.0" width="5.0" height="5.0" />
  <rect class="unlit" x="46.0" y="110.0" width="5.0" height="5.0" />
  <rect class="unlit" x="52.0" y="110.0" width="5.0" height="5.0" />
  <rect class="unlit" x="58.0" y="110.0" width="5.0" height="5.0" />
  <rect class="unlit" x="22.0" y="116.0" width="5.0" height="5.0" />
  <rect class="unlit" x="28.0" y="116.0" width="5.0" height="5.0" />
  <rect class="lit" x="34.0" y="116.0" width="5.0" height="5.0" />
  <rect class="lit" x="41.5" y="163.0" width="1" height="1" />
  <rect class="unlit" x="40.0" y="116.0" width="5.0" height="5.0" />
  <rect class="lit" x="46.0" y="116.0" width="5.0" height="5.0" />
  <rect class="lit" x="43.5" y="163.0" width="1" height="1" />
  <rect class="unlit" x="52.0" y="116.0" width="5.0" height="5.0" />
  <rect class="unlit" x="58.0" y="116.0" width="5.0" height="5.0" />
  <rect class="unlit" x="22.0" y="122.0" width="5.0" height="5.0" />
  <rect class="unlit" x="28.0" y="122.0" width="5.0" height="5.0" />
  <rect class="unlit" x="34.0" y="122.0" width="5.0" height="5.0" />
  <rect class="lit" x="40.0" y="122.0" width="5.0" height="5.0" />
  <rect class="lit" x="42.5" y="164.0" width="1" height="1" />
  <rect class="unlit" x="46.0" y="122.0" width="5.0" height="5.0" />
  <rect class="lit" x="52.0" y="122.0" width="5.0" height="5.0" />
  <rect class="lit" x="44.5" y="164.0" width="1" height="1" />
  <rect class="unlit" x="58.0" y="122.0" width="5.0" height="5.0" />
  <rect class="lit" x="22.0" y="128.0" width="5.0" height="5.0" />
  <rect class="lit" x="39.5" y="165.0" width="1" height="1" />
  <rect class="unlit" x="28.0" y="128.0" width="5.0" height="5.0" />
  <rect class="unlit" x="34.0" y="128.0" width="5.0" height="5.0" />
  <rect class="lit" x="40.0" y="128.0" width="5.0" height="5.0" />
  <rect class="lit" x="42.5" y="165.0" width="1" height="1" />
  <rect class="unlit" x="46.0" y="128.0" width="5.0" height="5.0" />
  <rect class="lit" x="52.0" y="128.0" width="5.0" height="5.0" />
  <rect class="lit" x="44.5" y="165.0" width="1" height="1" />
  <rect class="unlit" x="58.0" y="128.0" width="5.0" height="5.0" />
  <rect class="unlit" x="22.0" y="134.0" width="5.0" height="5.0" />
  <rect class="unlit" x="28.0" y="134.0" width="5.0" height="5.0" />
  <rect class="unlit" x="34.0" y="134.0" width="5.0" height="5.0" />
  <rect class="lit" x="40.0" y="134.0" width="5.0" height="5.0" />
  <rect class="lit" x="42.5" y="166.0" width="1" height="1" />
  <rect class="unlit" x="46.0" y="134.0" width="5.0" height="5.0" />
  <rect class="lit" x="52.0" y="134.0" width="5.0" height="5.0" />
  <rect class="lit" x="44.5" y="166.0" width="1" height="1" />
  <rect class="unlit" x="58.0" y="134.0" width="5.0" height="5.0" />
  <rect class="unlit" x="22.0" y="140.0" width="5.0" height="5.0" />
  <rect class="unlit" x="28.0" y="140.0" width="5.0" height="5.0" />
  <rect class="lit" x="34.0" y="140.0" width="5.0" height="5.0" />
  <rect class="lit" x="41.5" y="167.0" width="1" height="1" />
  <rect class="unlit" x="40.0" y="140.0" width="5.0" height="5.0" />
  <rect class="lit" x="46.0" y="140.0" width="5.0" height="5.0" />
  <rect class="lit" x="43.5" y="167.0" width="1" height="1" />
  <rect class="unlit" x="52.0" y="140.0" width="5.0" height="5.0" />
  <rect class="unlit" x="58.0" y="140.0" width="5.0" height="5.0" />
  <rect class="unlit" x="22.0" y="146.0" width="5.0" height="5.0" />
  <rect class="unlit" x="28.0" y="146.0" width="5.0" height="5.0" />
  <rect class="unlit" x="34.0" y="146.0" width="5.0" height="5.0" />
  <rect class="unlit" x="40.0" y="146.0" width="5.0" height="5.0" />
  <rect class="unlit" x="46.0" y="146.0" width="5.0" height="5.0" />
  <rect class="unlit" x="52.0" y="146.0" width="5.0" height="5.0" />
  <rect class="unlit" x="58.0" y="146.0" width="5.0" height="5.0" />
  <text class="name" x="43.0" y="183.0">Reverb</text>
  <g class="mark">
    <polyline points="93.56,22.48 93.56,63.52" />
    <polyline points="113.00,37.60 113.00,63.52" />
    <polyline points="132.44,51.64 132.44,63.52" />
  </g>
  <g class="mark small">
    <polyline points="107.24,81.92 107.24,94.08" />
    <polyline points="113.00,86.40 113.00,94.08" />
    <polyline points="118.76,90.56 118.76,94.08" />
  </g>
  <rect class="unlit" x="92.0" y="110.0" width="5.0" height="5.0" />
  <rect class="unlit" x="98.0" y="110.0" width="5.0" height="5.0" />
  <rect class="unlit" x="104.0" y="110.0" width="5.0" height="5.0" />
  <rect class="unlit" x="110.0" y="110.0" width="5.0" height="5.0" />
  <rect class="unlit" x="116.0" y="110.0" width="5.0" height="5.0" />
  <rect class="unlit" x="122.0" y="110.0" width="5.0" height="5.0" />
  <rect class="unlit" x="128.0" y="110.0" width="5.0" height="5.0" />
  <rect class="lit" x="92.0" y="116.0" width="5.0" height="5.0" />
  <rect class="lit" x="109.5" y="163.0" width="1" height="1" />
  <rect class="unlit" x="98.0" y="116.0" width="5.0" height="5.0" />
  <rect class="unlit" x="104.0" y="116.0" width="5.0" height="5.0" />
  <rect class="unlit" x="110.0" y="116.0" width="5.0" height="5.0" />
  <rect class="unlit" x="116.0" y="116.0" width="5.0" height="5.0" />
  <rect class="unlit" x="122.0" y="116.0" width="5.0" height="5.0" />
  <rect class="unlit" x="128.0" y="116.0" width="5.0" height="5.0" />
  <rect class="lit" x="92.0" y="122.0" width="5.0" height="5.0" />
  <rect class="lit" x="109.5" y="164.0" width="1" height="1" />
  <rect class="unlit" x="98.0" y="122.0" width="5.0" height="5.0" />
  <rect class="unlit" x="104.0" y="122.0" width="5.0" height="5.0" />
  <rect class="unlit" x="110.0" y="122.0" width="5.0" height="5.0" />
  <rect class="unlit" x="116.0" y="122.0" width="5.0" height="5.0" />
  <rect class="unlit" x="122.0" y="122.0" width="5.0" height="5.0" />
  <rect class="unlit" x="128.0" y="122.0" width="5.0" height="5.0" />
  <rect class="lit" x="92.0" y="128.0" width="5.0" height="5.0" />
  <rect class="lit" x="109.5" y="165.0" width="1" height="1" />
  <rect class="unlit" x="98.0" y="128.0" width="5.0" height="5.0" />
  <rect class="unlit" x="104.0" y="128.0" width="5.0" height="5.0" />
  <rect class="lit" x="110.0" y="128.0" width="5.0" height="5.0" />
  <rect class="lit" x="112.5" y="165.0" width="1" height="1" />
  <rect class="unlit" x="116.0" y="128.0" width="5.0" height="5.0" />
  <rect class="unlit" x="122.0" y="128.0" width="5.0" height="5.0" />
  <rect class="unlit" x="128.0" y="128.0" width="5.0" height="5.0" />
  <rect class="lit" x="92.0" y="134.0" width="5.0" height="5.0" />
  <rect class="lit" x="109.5" y="166.0" width="1" height="1" />
  <rect class="unlit" x="98.0" y="134.0" width="5.0" height="5.0" />
  <rect class="unlit" x="104.0" y="134.0" width="5.0" height="5.0" />
  <rect class="lit" x="110.0" y="134.0" width="5.0" height="5.0" />
  <rect class="lit" x="112.5" y="166.0" width="1" height="1" />
  <rect class="unlit" x="116.0" y="134.0" width="5.0" height="5.0" />
  <rect class="unlit" x="122.0" y="134.0" width="5.0" height="5.0" />
  <rect class="unlit" x="128.0" y="134.0" width="5.0" height="5.0" />
  <rect class="lit" x="92.0" y="140.0" width="5.0" height="5.0" />
  <rect class="lit" x="109.5" y="167.0" width="1" height="1" />
  <rect class="unlit" x="98.0" y="140.0" width="5.0" height="5.0" />
  <rect class="unlit" x="104.0" y="140.0" width="5.0" height="5.0" />
  <rect class="lit" x="110.0" y="140.0" width="5.0" height="5.0" />
  <rect class="lit" x="112.5" y="167.0" width="1" height="1" />
  <rect class="unlit" x="116.0" y="140.0" width="5.0" height="5.0" />
  <rect class="unlit" x="122.0" y="140.0" width="5.0" height="5.0" />
  <rect class="lit" x="128.0" y="140.0" width="5.0" height="5.0" />
  <rect class="lit" x="115.5" y="167.0" width="1" height="1" />
  <rect class="lit" x="92.0" y="146.0" width="5.0" height="5.0" />
  <rect class="lit" x="109.5" y="168.0" width="1" height="1" />
  <rect class="unlit" x="98.0" y="146.0" width="5.0" height="5.0" />
  <rect class="unlit" x="104.0" y="146.0" width="5.0" height="5.0" />
  <rect class="lit" x="110.0" y="146.0" width="5.0" height="5.0" />
  <rect class="lit" x="112.5" y="168.0" width="1" height="1" />
  <rect class="unlit" x="116.0" y="146.0" width="5.0" height="5.0" />
  <rect class="unlit" x="122.0" y="146.0" width="5.0" height="5.0" />
  <rect class="lit" x="128.0" y="146.0" width="5.0" height="5.0" />
  <rect class="lit" x="115.5" y="168.0" width="1" height="1" />
  <text class="name" x="113.0" y="183.0">Delay</text>
  <g class="mark">
    <polyline points="160.32,43.00 160.56,42.36 160.79,41.73 161.03,41.09 161.26,40.46 161.50,39.83 161.74,39.21 161.97,38.59 162.21,37.97 162.45,37.36 162.68,36.75 162.92,36.15 163.15,35.56 163.39,34.98 163.63,34.40 163.86,33.84 164.10,33.28 164.34,32.73 164.57,32.20 164.81,31.68 165.04,31.17 165.28,30.67 165.52,30.18 165.75,29.71 165.99,29.25 166.23,28.81 166.46,28.38 166.70,27.97 166.93,27.58 167.17,27.20 167.41,26.84 167.64,26.49 167.88,26.16 168.12,25.86 168.35,25.56 168.59,25.29 168.82,25.04 169.06,24.81 169.30,24.59 169.53,24.40 169.77,24.22 170.01,24.07 170.24,23.93 170.48,23.82 170.71,23.73 170.95,23.65 171.19,23.60 171.42,23.57 171.66,23.56 171.90,23.57 172.13,23.60 172.37,23.65 172.60,23.73 172.84,23.82 173.08,23.93 173.31,24.07 173.55,24.22 173.79,24.40 174.02,24.59 174.26,24.81 174.49,25.04 174.73,25.29 174.97,25.56 175.20,25.86 175.44,26.16 175.68,26.49 175.91,26.84 176.15,27.20 176.38,27.58 176.62,27.97 176.86,28.38 177.09,28.81 177.33,29.25 177.57,29.71 177.80,30.18 178.04,30.67 178.27,31.17 178.51,31.68 178.75,32.20 178.98,32.73 179.22,33.28 179.46,33.84 179.69,34.40 179.93,34.98 180.16,35.56 180.40,36.15 180.64,36.75 180.87,37.36 181.11,37.97 181.35,38.59 181.58,39.21 181.82,39.83 182.05,40.46 182.29,41.09 182.53,41.73 182.76,42.36 183.00,43.00 183.24,43.64 183.47,44.27 183.71,44.91 183.95,45.54 184.18,46.17 184.42,46.79 184.65,47.41 184.89,48.03 185.13,48.64 185.36,49.25 185.60,49.85 185.84,50.44 186.07,51.02 186.31,51.60 186.54,52.16 186.78,52.72 187.02,53.27 187.25,53.80 187.49,54.32 187.73,54.83 187.96,55.33 188.20,55.82 188.43,56.29 188.67,56.75 188.91,57.19 189.14,57.62 189.38,58.03 189.62,58.42 189.85,58.80 190.09,59.16 190.32,59.51 190.56,59.84 190.80,60.14 191.03,60.44 191.27,60.71 191.51,60.96 191.74,61.19 191.98,61.41 192.21,61.60 192.45,61.78 192.69,61.93 192.92,62.07 193.16,62.18 193.40,62.27 193.63,62.35 193.87,62.40 194.10,62.43 194.34,62.44 194.58,62.43 194.81,62.40 195.05,62.35 195.29,62.27 195.52,62.18 195.76,62.07 195.99,61.93 196.23,61.78 196.47,61.60 196.70,61.41 196.94,61.19 197.18,60.96 197.41,60.71 197.65,60.44 197.88,60.14 198.12,59.84 198.36,59.51 198.59,59.16 198.83,58.80 199.07,58.42 199.30,58.03 199.54,57.62 199.77,57.19 200.01,56.75 200.25,56.29 200.48,55.82 200.72,55.33 200.96,54.83 201.19,54.32 201.43,53.80 201.66,53.27 201.90,52.72 202.14,52.16 202.37,51.60 202.61,51.02 202.85,50.44 203.08,49.85 203.32,49.25 203.55,48.64 203.79,48.03 204.03,47.41 204.26,46.79 204.50,46.17 204.74,45.54 204.97,44.91 205.21,44.27 205.44,43.64 205.68,43.00" />
  </g>
  <g class="mark small">
    <polyline points="176.28,88.00 176.49,87.44 176.70,86.88 176.91,86.33 177.12,85.80 177.33,85.28 177.54,84.80 177.75,84.35 177.96,83.93 178.17,83.55 178.38,83.21 178.59,82.92 178.80,82.68 179.01,82.49 179.22,82.35 179.43,82.27 179.64,82.24 179.85,82.27 180.06,82.35 180.27,82.49 180.48,82.68 180.69,82.92 180.90,83.21 181.11,83.55 181.32,83.93 181.53,84.35 181.74,84.80 181.95,85.28 182.16,85.80 182.37,86.33 182.58,86.88 182.79,87.44 183.00,88.00 183.21,88.56 183.42,89.12 183.63,89.67 183.84,90.20 184.05,90.72 184.26,91.20 184.47,91.65 184.68,92.07 184.89,92.45 185.10,92.79 185.31,93.08 185.52,93.32 185.73,93.51 185.94,93.65 186.15,93.73 186.36,93.76 186.57,93.73 186.78,93.65 186.99,93.51 187.20,93.32 187.41,93.08 187.62,92.79 187.83,92.45 188.04,92.07 188.25,91.65 188.46,91.20 188.67,90.72 188.88,90.20 189.09,89.67 189.30,89.12 189.51,88.56 189.72,88.00" />
  </g>
  <rect class="unlit" x="162.0" y="110.0" width="5.0" height="5.0" />
  <rect class="unlit" x="168.0" y="110.0" width="5.0" height="5.0" />
  <rect class="unlit" x="174.0" y="110.0" width="5.0" height="5.0" />
  <rect class="unlit" x="180.0" y="110.0" width="5.0" height="5.0" />
  <rect class="unlit" x="186.0" y="110.0" width="5.0" height="5.0" />
  <rect class="unlit" x="192.0" y="110.0" width="5.0" height="5.0" />
  <rect class="unlit" x="198.0" y="110.0" width="5.0" height="5.0" />
  <rect class="unlit" x="162.0" y="116.0" width="5.0" height="5.0" />
  <rect class="lit" x="168.0" y="116.0" width="5.0" height="5.0" />
  <rect class="lit" x="180.5" y="163.0" width="1" height="1" />
  <rect class="lit" x="174.0" y="116.0" width="5.0" height="5.0" />
  <rect class="lit" x="181.5" y="163.0" width="1" height="1" />
  <rect class="unlit" x="180.0" y="116.0" width="5.0" height="5.0" />
  <rect class="unlit" x="186.0" y="116.0" width="5.0" height="5.0" />
  <rect class="unlit" x="192.0" y="116.0" width="5.0" height="5.0" />
  <rect class="unlit" x="198.0" y="116.0" width="5.0" height="5.0" />
  <rect class="lit" x="162.0" y="122.0" width="5.0" height="5.0" />
  <rect class="lit" x="179.5" y="164.0" width="1" height="1" />
  <rect class="unlit" x="168.0" y="122.0" width="5.0" height="5.0" />
  <rect class="unlit" x="174.0" y="122.0" width="5.0" height="5.0" />
  <rect class="lit" x="180.0" y="122.0" width="5.0" height="5.0" />
  <rect class="lit" x="182.5" y="164.0" width="1" height="1" />
  <rect class="unlit" x="186.0" y="122.0" width="5.0" height="5.0" />
  <rect class="unlit" x="192.0" y="122.0" width="5.0" height="5.0" />
  <rect class="unlit" x="198.0" y="122.0" width="5.0" height="5.0" />
  <rect class="lit" x="162.0" y="128.0" width="5.0" height="5.0" />
  <rect class="lit" x="179.5" y="165.0" width="1" height="1" />
  <rect class="unlit" x="168.0" y="128.0" width="5.0" height="5.0" />
  <rect class="unlit" x="174.0" y="128.0" width="5.0" height="5.0" />
  <rect class="lit" x="180.0" y="128.0" width="5.0" height="5.0" />
  <rect class="lit" x="182.5" y="165.0" width="1" height="1" />
  <rect class="unlit" x="186.0" y="128.0" width="5.0" height="5.0" />
  <rect class="unlit" x="192.0" y="128.0" width="5.0" height="5.0" />
  <rect class="lit" x="198.0" y="128.0" width="5.0" height="5.0" />
  <rect class="lit" x="185.5" y="165.0" width="1" height="1" />
  <rect class="unlit" x="162.0" y="134.0" width="5.0" height="5.0" />
  <rect class="unlit" x="168.0" y="134.0" width="5.0" height="5.0" />
  <rect class="unlit" x="174.0" y="134.0" width="5.0" height="5.0" />
  <rect class="lit" x="180.0" y="134.0" width="5.0" height="5.0" />
  <rect class="lit" x="182.5" y="166.0" width="1" height="1" />
  <rect class="unlit" x="186.0" y="134.0" width="5.0" height="5.0" />
  <rect class="unlit" x="192.0" y="134.0" width="5.0" height="5.0" />
  <rect class="lit" x="198.0" y="134.0" width="5.0" height="5.0" />
  <rect class="lit" x="185.5" y="166.0" width="1" height="1" />
  <rect class="unlit" x="162.0" y="140.0" width="5.0" height="5.0" />
  <rect class="unlit" x="168.0" y="140.0" width="5.0" height="5.0" />
  <rect class="unlit" x="174.0" y="140.0" width="5.0" height="5.0" />
  <rect class="unlit" x="180.0" y="140.0" width="5.0" height="5.0" />
  <rect class="lit" x="186.0" y="140.0" width="5.0" height="5.0" />
  <rect class="lit" x="183.5" y="167.0" width="1" height="1" />
  <rect class="lit" x="192.0" y="140.0" width="5.0" height="5.0" />
  <rect class="lit" x="184.5" y="167.0" width="1" height="1" />
  <rect class="unlit" x="198.0" y="140.0" width="5.0" height="5.0" />
  <rect class="unlit" x="162.0" y="146.0" width="5.0" height="5.0" />
  <rect class="unlit" x="168.0" y="146.0" width="5.0" height="5.0" />
  <rect class="unlit" x="174.0" y="146.0" width="5.0" height="5.0" />
  <rect class="unlit" x="180.0" y="146.0" width="5.0" height="5.0" />
  <rect class="unlit" x="186.0" y="146.0" width="5.0" height="5.0" />
  <rect class="unlit" x="192.0" y="146.0" width="5.0" height="5.0" />
  <rect class="unlit" x="198.0" y="146.0" width="5.0" height="5.0" />
  <text class="name" x="183.0" y="183.0">Modulation</text>
  <g class="mark">
    <polyline points="230.32,28.96 250.84,28.96 275.68,60.28" />
  </g>
  <g class="mark small">
    <polyline points="246.28,83.84 252.36,83.84 259.72,93.12" />
  </g>
  <rect class="unlit" x="232.0" y="110.0" width="5.0" height="5.0" />
  <rect class="unlit" x="238.0" y="110.0" width="5.0" height="5.0" />
  <rect class="unlit" x="244.0" y="110.0" width="5.0" height="5.0" />
  <rect class="unlit" x="250.0" y="110.0" width="5.0" height="5.0" />
  <rect class="unlit" x="256.0" y="110.0" width="5.0" height="5.0" />
  <rect class="unlit" x="262.0" y="110.0" width="5.0" height="5.0" />
  <rect class="unlit" x="268.0" y="110.0" width="5.0" height="5.0" />
  <rect class="lit" x="232.0" y="116.0" width="5.0" height="5.0" />
  <rect class="lit" x="249.5" y="163.0" width="1" height="1" />
  <rect class="lit" x="238.0" y="116.0" width="5.0" height="5.0" />
  <rect class="lit" x="250.5" y="163.0" width="1" height="1" />
  <rect class="lit" x="244.0" y="116.0" width="5.0" height="5.0" />
  <rect class="lit" x="251.5" y="163.0" width="1" height="1" />
  <rect class="lit" x="250.0" y="116.0" width="5.0" height="5.0" />
  <rect class="lit" x="252.5" y="163.0" width="1" height="1" />
  <rect class="unlit" x="256.0" y="116.0" width="5.0" height="5.0" />
  <rect class="unlit" x="262.0" y="116.0" width="5.0" height="5.0" />
  <rect class="unlit" x="268.0" y="116.0" width="5.0" height="5.0" />
  <rect class="unlit" x="232.0" y="122.0" width="5.0" height="5.0" />
  <rect class="unlit" x="238.0" y="122.0" width="5.0" height="5.0" />
  <rect class="unlit" x="244.0" y="122.0" width="5.0" height="5.0" />
  <rect class="unlit" x="250.0" y="122.0" width="5.0" height="5.0" />
  <rect class="lit" x="256.0" y="122.0" width="5.0" height="5.0" />
  <rect class="lit" x="253.5" y="164.0" width="1" height="1" />
  <rect class="unlit" x="262.0" y="122.0" width="5.0" height="5.0" />
  <rect class="unlit" x="268.0" y="122.0" width="5.0" height="5.0" />
  <rect class="unlit" x="232.0" y="128.0" width="5.0" height="5.0" />
  <rect class="unlit" x="238.0" y="128.0" width="5.0" height="5.0" />
  <rect class="unlit" x="244.0" y="128.0" width="5.0" height="5.0" />
  <rect class="unlit" x="250.0" y="128.0" width="5.0" height="5.0" />
  <rect class="unlit" x="256.0" y="128.0" width="5.0" height="5.0" />
  <rect class="lit" x="262.0" y="128.0" width="5.0" height="5.0" />
  <rect class="lit" x="254.5" y="165.0" width="1" height="1" />
  <rect class="unlit" x="268.0" y="128.0" width="5.0" height="5.0" />
  <rect class="unlit" x="232.0" y="134.0" width="5.0" height="5.0" />
  <rect class="unlit" x="238.0" y="134.0" width="5.0" height="5.0" />
  <rect class="unlit" x="244.0" y="134.0" width="5.0" height="5.0" />
  <rect class="unlit" x="250.0" y="134.0" width="5.0" height="5.0" />
  <rect class="unlit" x="256.0" y="134.0" width="5.0" height="5.0" />
  <rect class="unlit" x="262.0" y="134.0" width="5.0" height="5.0" />
  <rect class="lit" x="268.0" y="134.0" width="5.0" height="5.0" />
  <rect class="lit" x="255.5" y="166.0" width="1" height="1" />
  <rect class="unlit" x="232.0" y="140.0" width="5.0" height="5.0" />
  <rect class="unlit" x="238.0" y="140.0" width="5.0" height="5.0" />
  <rect class="unlit" x="244.0" y="140.0" width="5.0" height="5.0" />
  <rect class="unlit" x="250.0" y="140.0" width="5.0" height="5.0" />
  <rect class="unlit" x="256.0" y="140.0" width="5.0" height="5.0" />
  <rect class="unlit" x="262.0" y="140.0" width="5.0" height="5.0" />
  <rect class="unlit" x="268.0" y="140.0" width="5.0" height="5.0" />
  <rect class="unlit" x="232.0" y="146.0" width="5.0" height="5.0" />
  <rect class="unlit" x="238.0" y="146.0" width="5.0" height="5.0" />
  <rect class="unlit" x="244.0" y="146.0" width="5.0" height="5.0" />
  <rect class="unlit" x="250.0" y="146.0" width="5.0" height="5.0" />
  <rect class="unlit" x="256.0" y="146.0" width="5.0" height="5.0" />
  <rect class="unlit" x="262.0" y="146.0" width="5.0" height="5.0" />
  <rect class="unlit" x="268.0" y="146.0" width="5.0" height="5.0" />
  <text class="name" x="253.0" y="183.0">Filter</text>
  <g class="mark">
    <polyline points="300.32,22.48 345.68,22.48" />
    <polyline points="300.32,63.52 345.68,63.52" />
    <polyline points="323.00,34.36 323.00,51.64" />
  </g>
  <g class="mark small">
    <polyline points="316.28,81.92 329.72,81.92" />
    <polyline points="316.28,94.08 329.72,94.08" />
    <polyline points="323.00,85.44 323.00,90.56" />
  </g>
  <rect class="lit" x="302.0" y="110.0" width="5.0" height="5.0" />
  <rect class="lit" x="319.5" y="162.0" width="1" height="1" />
  <rect class="lit" x="308.0" y="110.0" width="5.0" height="5.0" />
  <rect class="lit" x="320.5" y="162.0" width="1" height="1" />
  <rect class="lit" x="314.0" y="110.0" width="5.0" height="5.0" />
  <rect class="lit" x="321.5" y="162.0" width="1" height="1" />
  <rect class="lit" x="320.0" y="110.0" width="5.0" height="5.0" />
  <rect class="lit" x="322.5" y="162.0" width="1" height="1" />
  <rect class="lit" x="326.0" y="110.0" width="5.0" height="5.0" />
  <rect class="lit" x="323.5" y="162.0" width="1" height="1" />
  <rect class="lit" x="332.0" y="110.0" width="5.0" height="5.0" />
  <rect class="lit" x="324.5" y="162.0" width="1" height="1" />
  <rect class="lit" x="338.0" y="110.0" width="5.0" height="5.0" />
  <rect class="lit" x="325.5" y="162.0" width="1" height="1" />
  <rect class="unlit" x="302.0" y="116.0" width="5.0" height="5.0" />
  <rect class="unlit" x="308.0" y="116.0" width="5.0" height="5.0" />
  <rect class="unlit" x="314.0" y="116.0" width="5.0" height="5.0" />
  <rect class="unlit" x="320.0" y="116.0" width="5.0" height="5.0" />
  <rect class="unlit" x="326.0" y="116.0" width="5.0" height="5.0" />
  <rect class="unlit" x="332.0" y="116.0" width="5.0" height="5.0" />
  <rect class="unlit" x="338.0" y="116.0" width="5.0" height="5.0" />
  <rect class="unlit" x="302.0" y="122.0" width="5.0" height="5.0" />
  <rect class="unlit" x="308.0" y="122.0" width="5.0" height="5.0" />
  <rect class="unlit" x="314.0" y="122.0" width="5.0" height="5.0" />
  <rect class="lit" x="320.0" y="122.0" width="5.0" height="5.0" />
  <rect class="lit" x="322.5" y="164.0" width="1" height="1" />
  <rect class="unlit" x="326.0" y="122.0" width="5.0" height="5.0" />
  <rect class="unlit" x="332.0" y="122.0" width="5.0" height="5.0" />
  <rect class="unlit" x="338.0" y="122.0" width="5.0" height="5.0" />
  <rect class="unlit" x="302.0" y="128.0" width="5.0" height="5.0" />
  <rect class="unlit" x="308.0" y="128.0" width="5.0" height="5.0" />
  <rect class="unlit" x="314.0" y="128.0" width="5.0" height="5.0" />
  <rect class="lit" x="320.0" y="128.0" width="5.0" height="5.0" />
  <rect class="lit" x="322.5" y="165.0" width="1" height="1" />
  <rect class="unlit" x="326.0" y="128.0" width="5.0" height="5.0" />
  <rect class="unlit" x="332.0" y="128.0" width="5.0" height="5.0" />
  <rect class="unlit" x="338.0" y="128.0" width="5.0" height="5.0" />
  <rect class="unlit" x="302.0" y="134.0" width="5.0" height="5.0" />
  <rect class="unlit" x="308.0" y="134.0" width="5.0" height="5.0" />
  <rect class="unlit" x="314.0" y="134.0" width="5.0" height="5.0" />
  <rect class="lit" x="320.0" y="134.0" width="5.0" height="5.0" />
  <rect class="lit" x="322.5" y="166.0" width="1" height="1" />
  <rect class="unlit" x="326.0" y="134.0" width="5.0" height="5.0" />
  <rect class="unlit" x="332.0" y="134.0" width="5.0" height="5.0" />
  <rect class="unlit" x="338.0" y="134.0" width="5.0" height="5.0" />
  <rect class="unlit" x="302.0" y="140.0" width="5.0" height="5.0" />
  <rect class="unlit" x="308.0" y="140.0" width="5.0" height="5.0" />
  <rect class="unlit" x="314.0" y="140.0" width="5.0" height="5.0" />
  <rect class="unlit" x="320.0" y="140.0" width="5.0" height="5.0" />
  <rect class="unlit" x="326.0" y="140.0" width="5.0" height="5.0" />
  <rect class="unlit" x="332.0" y="140.0" width="5.0" height="5.0" />
  <rect class="unlit" x="338.0" y="140.0" width="5.0" height="5.0" />
  <rect class="lit" x="302.0" y="146.0" width="5.0" height="5.0" />
  <rect class="lit" x="319.5" y="168.0" width="1" height="1" />
  <rect class="lit" x="308.0" y="146.0" width="5.0" height="5.0" />
  <rect class="lit" x="320.5" y="168.0" width="1" height="1" />
  <rect class="lit" x="314.0" y="146.0" width="5.0" height="5.0" />
  <rect class="lit" x="321.5" y="168.0" width="1" height="1" />
  <rect class="lit" x="320.0" y="146.0" width="5.0" height="5.0" />
  <rect class="lit" x="322.5" y="168.0" width="1" height="1" />
  <rect class="lit" x="326.0" y="146.0" width="5.0" height="5.0" />
  <rect class="lit" x="323.5" y="168.0" width="1" height="1" />
  <rect class="lit" x="332.0" y="146.0" width="5.0" height="5.0" />
  <rect class="lit" x="324.5" y="168.0" width="1" height="1" />
  <rect class="lit" x="338.0" y="146.0" width="5.0" height="5.0" />
  <rect class="lit" x="325.5" y="168.0" width="1" height="1" />
  <text class="name" x="323.0" y="183.0">Dynamics</text>
  <g class="mark">
    <polyline points="370.32,60.28 378.96,60.28 378.96,25.72 395.16,25.72 395.16,60.28 415.68,60.28" />
  </g>
  <g class="mark small">
    <polyline points="386.28,93.12 388.84,93.12 388.84,82.88 393.64,82.88 393.64,93.12 399.72,93.12" />
  </g>
  <rect class="unlit" x="372.0" y="110.0" width="5.0" height="5.0" />
  <rect class="unlit" x="378.0" y="110.0" width="5.0" height="5.0" />
  <rect class="unlit" x="384.0" y="110.0" width="5.0" height="5.0" />
  <rect class="unlit" x="390.0" y="110.0" width="5.0" height="5.0" />
  <rect class="unlit" x="396.0" y="110.0" width="5.0" height="5.0" />
  <rect class="unlit" x="402.0" y="110.0" width="5.0" height="5.0" />
  <rect class="unlit" x="408.0" y="110.0" width="5.0" height="5.0" />
  <rect class="unlit" x="372.0" y="116.0" width="5.0" height="5.0" />
  <rect class="lit" x="378.0" y="116.0" width="5.0" height="5.0" />
  <rect class="lit" x="390.5" y="163.0" width="1" height="1" />
  <rect class="lit" x="384.0" y="116.0" width="5.0" height="5.0" />
  <rect class="lit" x="391.5" y="163.0" width="1" height="1" />
  <rect class="lit" x="390.0" y="116.0" width="5.0" height="5.0" />
  <rect class="lit" x="392.5" y="163.0" width="1" height="1" />
  <rect class="unlit" x="396.0" y="116.0" width="5.0" height="5.0" />
  <rect class="unlit" x="402.0" y="116.0" width="5.0" height="5.0" />
  <rect class="unlit" x="408.0" y="116.0" width="5.0" height="5.0" />
  <rect class="unlit" x="372.0" y="122.0" width="5.0" height="5.0" />
  <rect class="lit" x="378.0" y="122.0" width="5.0" height="5.0" />
  <rect class="lit" x="390.5" y="164.0" width="1" height="1" />
  <rect class="unlit" x="384.0" y="122.0" width="5.0" height="5.0" />
  <rect class="lit" x="390.0" y="122.0" width="5.0" height="5.0" />
  <rect class="lit" x="392.5" y="164.0" width="1" height="1" />
  <rect class="unlit" x="396.0" y="122.0" width="5.0" height="5.0" />
  <rect class="unlit" x="402.0" y="122.0" width="5.0" height="5.0" />
  <rect class="unlit" x="408.0" y="122.0" width="5.0" height="5.0" />
  <rect class="unlit" x="372.0" y="128.0" width="5.0" height="5.0" />
  <rect class="lit" x="378.0" y="128.0" width="5.0" height="5.0" />
  <rect class="lit" x="390.5" y="165.0" width="1" height="1" />
  <rect class="unlit" x="384.0" y="128.0" width="5.0" height="5.0" />
  <rect class="lit" x="390.0" y="128.0" width="5.0" height="5.0" />
  <rect class="lit" x="392.5" y="165.0" width="1" height="1" />
  <rect class="unlit" x="396.0" y="128.0" width="5.0" height="5.0" />
  <rect class="unlit" x="402.0" y="128.0" width="5.0" height="5.0" />
  <rect class="unlit" x="408.0" y="128.0" width="5.0" height="5.0" />
  <rect class="unlit" x="372.0" y="134.0" width="5.0" height="5.0" />
  <rect class="lit" x="378.0" y="134.0" width="5.0" height="5.0" />
  <rect class="lit" x="390.5" y="166.0" width="1" height="1" />
  <rect class="unlit" x="384.0" y="134.0" width="5.0" height="5.0" />
  <rect class="lit" x="390.0" y="134.0" width="5.0" height="5.0" />
  <rect class="lit" x="392.5" y="166.0" width="1" height="1" />
  <rect class="unlit" x="396.0" y="134.0" width="5.0" height="5.0" />
  <rect class="unlit" x="402.0" y="134.0" width="5.0" height="5.0" />
  <rect class="unlit" x="408.0" y="134.0" width="5.0" height="5.0" />
  <rect class="lit" x="372.0" y="140.0" width="5.0" height="5.0" />
  <rect class="lit" x="389.5" y="167.0" width="1" height="1" />
  <rect class="lit" x="378.0" y="140.0" width="5.0" height="5.0" />
  <rect class="lit" x="390.5" y="167.0" width="1" height="1" />
  <rect class="unlit" x="384.0" y="140.0" width="5.0" height="5.0" />
  <rect class="lit" x="390.0" y="140.0" width="5.0" height="5.0" />
  <rect class="lit" x="392.5" y="167.0" width="1" height="1" />
  <rect class="lit" x="396.0" y="140.0" width="5.0" height="5.0" />
  <rect class="lit" x="393.5" y="167.0" width="1" height="1" />
  <rect class="lit" x="402.0" y="140.0" width="5.0" height="5.0" />
  <rect class="lit" x="394.5" y="167.0" width="1" height="1" />
  <rect class="lit" x="408.0" y="140.0" width="5.0" height="5.0" />
  <rect class="lit" x="395.5" y="167.0" width="1" height="1" />
  <rect class="unlit" x="372.0" y="146.0" width="5.0" height="5.0" />
  <rect class="unlit" x="378.0" y="146.0" width="5.0" height="5.0" />
  <rect class="unlit" x="384.0" y="146.0" width="5.0" height="5.0" />
  <rect class="unlit" x="390.0" y="146.0" width="5.0" height="5.0" />
  <rect class="unlit" x="396.0" y="146.0" width="5.0" height="5.0" />
  <rect class="unlit" x="402.0" y="146.0" width="5.0" height="5.0" />
  <rect class="unlit" x="408.0" y="146.0" width="5.0" height="5.0" />
  <text class="name" x="393.0" y="183.0">Distortion</text>
  <g class="mark">
    <polyline points="440.32,43.00 485.68,43.00" />
    <polyline points="440.32,31.12 440.32,54.88" />
    <polyline points="485.68,31.12 485.68,54.88" />
  </g>
  <g class="mark small">
    <polyline points="456.28,88.00 469.72,88.00" />
    <polyline points="456.28,84.48 456.28,91.52" />
    <polyline points="469.72,84.48 469.72,91.52" />
  </g>
  <rect class="unlit" x="442.0" y="110.0" width="5.0" height="5.0" />
  <rect class="unlit" x="448.0" y="110.0" width="5.0" height="5.0" />
  <rect class="unlit" x="454.0" y="110.0" width="5.0" height="5.0" />
  <rect class="unlit" x="460.0" y="110.0" width="5.0" height="5.0" />
  <rect class="unlit" x="466.0" y="110.0" width="5.0" height="5.0" />
  <rect class="unlit" x="472.0" y="110.0" width="5.0" height="5.0" />
  <rect class="unlit" x="478.0" y="110.0" width="5.0" height="5.0" />
  <rect class="unlit" x="442.0" y="116.0" width="5.0" height="5.0" />
  <rect class="unlit" x="448.0" y="116.0" width="5.0" height="5.0" />
  <rect class="unlit" x="454.0" y="116.0" width="5.0" height="5.0" />
  <rect class="unlit" x="460.0" y="116.0" width="5.0" height="5.0" />
  <rect class="unlit" x="466.0" y="116.0" width="5.0" height="5.0" />
  <rect class="unlit" x="472.0" y="116.0" width="5.0" height="5.0" />
  <rect class="unlit" x="478.0" y="116.0" width="5.0" height="5.0" />
  <rect class="lit" x="442.0" y="122.0" width="5.0" height="5.0" />
  <rect class="lit" x="459.5" y="164.0" width="1" height="1" />
  <rect class="unlit" x="448.0" y="122.0" width="5.0" height="5.0" />
  <rect class="unlit" x="454.0" y="122.0" width="5.0" height="5.0" />
  <rect class="unlit" x="460.0" y="122.0" width="5.0" height="5.0" />
  <rect class="unlit" x="466.0" y="122.0" width="5.0" height="5.0" />
  <rect class="unlit" x="472.0" y="122.0" width="5.0" height="5.0" />
  <rect class="lit" x="478.0" y="122.0" width="5.0" height="5.0" />
  <rect class="lit" x="465.5" y="164.0" width="1" height="1" />
  <rect class="lit" x="442.0" y="128.0" width="5.0" height="5.0" />
  <rect class="lit" x="459.5" y="165.0" width="1" height="1" />
  <rect class="lit" x="448.0" y="128.0" width="5.0" height="5.0" />
  <rect class="lit" x="460.5" y="165.0" width="1" height="1" />
  <rect class="lit" x="454.0" y="128.0" width="5.0" height="5.0" />
  <rect class="lit" x="461.5" y="165.0" width="1" height="1" />
  <rect class="lit" x="460.0" y="128.0" width="5.0" height="5.0" />
  <rect class="lit" x="462.5" y="165.0" width="1" height="1" />
  <rect class="lit" x="466.0" y="128.0" width="5.0" height="5.0" />
  <rect class="lit" x="463.5" y="165.0" width="1" height="1" />
  <rect class="lit" x="472.0" y="128.0" width="5.0" height="5.0" />
  <rect class="lit" x="464.5" y="165.0" width="1" height="1" />
  <rect class="lit" x="478.0" y="128.0" width="5.0" height="5.0" />
  <rect class="lit" x="465.5" y="165.0" width="1" height="1" />
  <rect class="lit" x="442.0" y="134.0" width="5.0" height="5.0" />
  <rect class="lit" x="459.5" y="166.0" width="1" height="1" />
  <rect class="unlit" x="448.0" y="134.0" width="5.0" height="5.0" />
  <rect class="unlit" x="454.0" y="134.0" width="5.0" height="5.0" />
  <rect class="unlit" x="460.0" y="134.0" width="5.0" height="5.0" />
  <rect class="unlit" x="466.0" y="134.0" width="5.0" height="5.0" />
  <rect class="unlit" x="472.0" y="134.0" width="5.0" height="5.0" />
  <rect class="lit" x="478.0" y="134.0" width="5.0" height="5.0" />
  <rect class="lit" x="465.5" y="166.0" width="1" height="1" />
  <rect class="unlit" x="442.0" y="140.0" width="5.0" height="5.0" />
  <rect class="unlit" x="448.0" y="140.0" width="5.0" height="5.0" />
  <rect class="unlit" x="454.0" y="140.0" width="5.0" height="5.0" />
  <rect class="unlit" x="460.0" y="140.0" width="5.0" height="5.0" />
  <rect class="unlit" x="466.0" y="140.0" width="5.0" height="5.0" />
  <rect class="unlit" x="472.0" y="140.0" width="5.0" height="5.0" />
  <rect class="unlit" x="478.0" y="140.0" width="5.0" height="5.0" />
  <rect class="unlit" x="442.0" y="146.0" width="5.0" height="5.0" />
  <rect class="unlit" x="448.0" y="146.0" width="5.0" height="5.0" />
  <rect class="unlit" x="454.0" y="146.0" width="5.0" height="5.0" />
  <rect class="unlit" x="460.0" y="146.0" width="5.0" height="5.0" />
  <rect class="unlit" x="466.0" y="146.0" width="5.0" height="5.0" />
  <rect class="unlit" x="472.0" y="146.0" width="5.0" height="5.0" />
  <rect class="unlit" x="478.0" y="146.0" width="5.0" height="5.0" />
  <text class="name" x="463.0" y="183.0">Imaging</text>
  <g class="mark">
    <polyline points="510.32,55.96 533.00,55.96 533.00,30.04 555.68,30.04" />
  </g>
  <g class="mark small">
    <polyline points="526.28,91.84 533.00,91.84 533.00,84.16 539.72,84.16" />
  </g>
  <rect class="unlit" x="512.0" y="110.0" width="5.0" height="5.0" />
  <rect class="unlit" x="518.0" y="110.0" width="5.0" height="5.0" />
  <rect class="unlit" x="524.0" y="110.0" width="5.0" height="5.0" />
  <rect class="unlit" x="530.0" y="110.0" width="5.0" height="5.0" />
  <rect class="unlit" x="536.0" y="110.0" width="5.0" height="5.0" />
  <rect class="unlit" x="542.0" y="110.0" width="5.0" height="5.0" />
  <rect class="unlit" x="548.0" y="110.0" width="5.0" height="5.0" />
  <rect class="unlit" x="512.0" y="116.0" width="5.0" height="5.0" />
  <rect class="unlit" x="518.0" y="116.0" width="5.0" height="5.0" />
  <rect class="unlit" x="524.0" y="116.0" width="5.0" height="5.0" />
  <rect class="lit" x="530.0" y="116.0" width="5.0" height="5.0" />
  <rect class="lit" x="532.5" y="163.0" width="1" height="1" />
  <rect class="lit" x="536.0" y="116.0" width="5.0" height="5.0" />
  <rect class="lit" x="533.5" y="163.0" width="1" height="1" />
  <rect class="lit" x="542.0" y="116.0" width="5.0" height="5.0" />
  <rect class="lit" x="534.5" y="163.0" width="1" height="1" />
  <rect class="lit" x="548.0" y="116.0" width="5.0" height="5.0" />
  <rect class="lit" x="535.5" y="163.0" width="1" height="1" />
  <rect class="unlit" x="512.0" y="122.0" width="5.0" height="5.0" />
  <rect class="unlit" x="518.0" y="122.0" width="5.0" height="5.0" />
  <rect class="unlit" x="524.0" y="122.0" width="5.0" height="5.0" />
  <rect class="lit" x="530.0" y="122.0" width="5.0" height="5.0" />
  <rect class="lit" x="532.5" y="164.0" width="1" height="1" />
  <rect class="unlit" x="536.0" y="122.0" width="5.0" height="5.0" />
  <rect class="unlit" x="542.0" y="122.0" width="5.0" height="5.0" />
  <rect class="unlit" x="548.0" y="122.0" width="5.0" height="5.0" />
  <rect class="unlit" x="512.0" y="128.0" width="5.0" height="5.0" />
  <rect class="unlit" x="518.0" y="128.0" width="5.0" height="5.0" />
  <rect class="unlit" x="524.0" y="128.0" width="5.0" height="5.0" />
  <rect class="lit" x="530.0" y="128.0" width="5.0" height="5.0" />
  <rect class="lit" x="532.5" y="165.0" width="1" height="1" />
  <rect class="unlit" x="536.0" y="128.0" width="5.0" height="5.0" />
  <rect class="unlit" x="542.0" y="128.0" width="5.0" height="5.0" />
  <rect class="unlit" x="548.0" y="128.0" width="5.0" height="5.0" />
  <rect class="lit" x="512.0" y="134.0" width="5.0" height="5.0" />
  <rect class="lit" x="529.5" y="166.0" width="1" height="1" />
  <rect class="lit" x="518.0" y="134.0" width="5.0" height="5.0" />
  <rect class="lit" x="530.5" y="166.0" width="1" height="1" />
  <rect class="lit" x="524.0" y="134.0" width="5.0" height="5.0" />
  <rect class="lit" x="531.5" y="166.0" width="1" height="1" />
  <rect class="lit" x="530.0" y="134.0" width="5.0" height="5.0" />
  <rect class="lit" x="532.5" y="166.0" width="1" height="1" />
  <rect class="unlit" x="536.0" y="134.0" width="5.0" height="5.0" />
  <rect class="unlit" x="542.0" y="134.0" width="5.0" height="5.0" />
  <rect class="unlit" x="548.0" y="134.0" width="5.0" height="5.0" />
  <rect class="unlit" x="512.0" y="140.0" width="5.0" height="5.0" />
  <rect class="unlit" x="518.0" y="140.0" width="5.0" height="5.0" />
  <rect class="unlit" x="524.0" y="140.0" width="5.0" height="5.0" />
  <rect class="unlit" x="530.0" y="140.0" width="5.0" height="5.0" />
  <rect class="unlit" x="536.0" y="140.0" width="5.0" height="5.0" />
  <rect class="unlit" x="542.0" y="140.0" width="5.0" height="5.0" />
  <rect class="unlit" x="548.0" y="140.0" width="5.0" height="5.0" />
  <rect class="unlit" x="512.0" y="146.0" width="5.0" height="5.0" />
  <rect class="unlit" x="518.0" y="146.0" width="5.0" height="5.0" />
  <rect class="unlit" x="524.0" y="146.0" width="5.0" height="5.0" />
  <rect class="unlit" x="530.0" y="146.0" width="5.0" height="5.0" />
  <rect class="unlit" x="536.0" y="146.0" width="5.0" height="5.0" />
  <rect class="unlit" x="542.0" y="146.0" width="5.0" height="5.0" />
  <rect class="unlit" x="548.0" y="146.0" width="5.0" height="5.0" />
  <text class="name" x="533.0" y="183.0">Pitch</text>
  <g class="mark">
    <circle cx="603.00" cy="43.00" r="20.52" />
    <circle class="dot" cx="603.00" cy="43.00" r="3.78" />
  </g>
  <g class="mark small">
    <circle cx="603.00" cy="88.00" r="6.08" />
    <circle class="dot" cx="603.00" cy="88.00" r="1.12" />
  </g>
  <rect class="unlit" x="582.0" y="110.0" width="5.0" height="5.0" />
  <rect class="unlit" x="588.0" y="110.0" width="5.0" height="5.0" />
  <rect class="lit" x="594.0" y="110.0" width="5.0" height="5.0" />
  <rect class="lit" x="601.5" y="162.0" width="1" height="1" />
  <rect class="lit" x="600.0" y="110.0" width="5.0" height="5.0" />
  <rect class="lit" x="602.5" y="162.0" width="1" height="1" />
  <rect class="lit" x="606.0" y="110.0" width="5.0" height="5.0" />
  <rect class="lit" x="603.5" y="162.0" width="1" height="1" />
  <rect class="unlit" x="612.0" y="110.0" width="5.0" height="5.0" />
  <rect class="unlit" x="618.0" y="110.0" width="5.0" height="5.0" />
  <rect class="unlit" x="582.0" y="116.0" width="5.0" height="5.0" />
  <rect class="lit" x="588.0" y="116.0" width="5.0" height="5.0" />
  <rect class="lit" x="600.5" y="163.0" width="1" height="1" />
  <rect class="unlit" x="594.0" y="116.0" width="5.0" height="5.0" />
  <rect class="unlit" x="600.0" y="116.0" width="5.0" height="5.0" />
  <rect class="unlit" x="606.0" y="116.0" width="5.0" height="5.0" />
  <rect class="lit" x="612.0" y="116.0" width="5.0" height="5.0" />
  <rect class="lit" x="604.5" y="163.0" width="1" height="1" />
  <rect class="unlit" x="618.0" y="116.0" width="5.0" height="5.0" />
  <rect class="lit" x="582.0" y="122.0" width="5.0" height="5.0" />
  <rect class="lit" x="599.5" y="164.0" width="1" height="1" />
  <rect class="unlit" x="588.0" y="122.0" width="5.0" height="5.0" />
  <rect class="unlit" x="594.0" y="122.0" width="5.0" height="5.0" />
  <rect class="unlit" x="600.0" y="122.0" width="5.0" height="5.0" />
  <rect class="unlit" x="606.0" y="122.0" width="5.0" height="5.0" />
  <rect class="unlit" x="612.0" y="122.0" width="5.0" height="5.0" />
  <rect class="lit" x="618.0" y="122.0" width="5.0" height="5.0" />
  <rect class="lit" x="605.5" y="164.0" width="1" height="1" />
  <rect class="lit" x="582.0" y="128.0" width="5.0" height="5.0" />
  <rect class="lit" x="599.5" y="165.0" width="1" height="1" />
  <rect class="unlit" x="588.0" y="128.0" width="5.0" height="5.0" />
  <rect class="unlit" x="594.0" y="128.0" width="5.0" height="5.0" />
  <rect class="lit" x="600.0" y="128.0" width="5.0" height="5.0" />
  <rect class="lit" x="602.5" y="165.0" width="1" height="1" />
  <rect class="unlit" x="606.0" y="128.0" width="5.0" height="5.0" />
  <rect class="unlit" x="612.0" y="128.0" width="5.0" height="5.0" />
  <rect class="lit" x="618.0" y="128.0" width="5.0" height="5.0" />
  <rect class="lit" x="605.5" y="165.0" width="1" height="1" />
  <rect class="lit" x="582.0" y="134.0" width="5.0" height="5.0" />
  <rect class="lit" x="599.5" y="166.0" width="1" height="1" />
  <rect class="unlit" x="588.0" y="134.0" width="5.0" height="5.0" />
  <rect class="unlit" x="594.0" y="134.0" width="5.0" height="5.0" />
  <rect class="unlit" x="600.0" y="134.0" width="5.0" height="5.0" />
  <rect class="unlit" x="606.0" y="134.0" width="5.0" height="5.0" />
  <rect class="unlit" x="612.0" y="134.0" width="5.0" height="5.0" />
  <rect class="lit" x="618.0" y="134.0" width="5.0" height="5.0" />
  <rect class="lit" x="605.5" y="166.0" width="1" height="1" />
  <rect class="unlit" x="582.0" y="140.0" width="5.0" height="5.0" />
  <rect class="lit" x="588.0" y="140.0" width="5.0" height="5.0" />
  <rect class="lit" x="600.5" y="167.0" width="1" height="1" />
  <rect class="unlit" x="594.0" y="140.0" width="5.0" height="5.0" />
  <rect class="unlit" x="600.0" y="140.0" width="5.0" height="5.0" />
  <rect class="unlit" x="606.0" y="140.0" width="5.0" height="5.0" />
  <rect class="lit" x="612.0" y="140.0" width="5.0" height="5.0" />
  <rect class="lit" x="604.5" y="167.0" width="1" height="1" />
  <rect class="unlit" x="618.0" y="140.0" width="5.0" height="5.0" />
  <rect class="unlit" x="582.0" y="146.0" width="5.0" height="5.0" />
  <rect class="unlit" x="588.0" y="146.0" width="5.0" height="5.0" />
  <rect class="lit" x="594.0" y="146.0" width="5.0" height="5.0" />
  <rect class="lit" x="601.5" y="168.0" width="1" height="1" />
  <rect class="lit" x="600.0" y="146.0" width="5.0" height="5.0" />
  <rect class="lit" x="602.5" y="168.0" width="1" height="1" />
  <rect class="lit" x="606.0" y="146.0" width="5.0" height="5.0" />
  <rect class="lit" x="603.5" y="168.0" width="1" height="1" />
  <rect class="unlit" x="612.0" y="146.0" width="5.0" height="5.0" />
  <rect class="unlit" x="618.0" y="146.0" width="5.0" height="5.0" />
  <text class="name" x="603.0" y="183.0">Rotary</text>
</svg>
