<svg xmlns="http://www.w3.org/2000/svg" viewBox="0 0 128 84.8" width="768" height="509" role="img" aria-label="4-Tap Delay front panel" font-family="ui-sans-serif, system-ui, sans-serif">
<title>4-Tap Delay (4TapDelay)</title>
<rect width="128" height="84.8" fill="#272727"/>
<text x="4" y="8.6" font-size="5.6" font-weight="600" fill="#ededed">4TapDelay</text>
<text x="124" y="8.6" font-size="4.2" text-anchor="end" fill="#888888">Delay</text>
<rect x="4" y="11.2" width="120" height="0.5" fill="#bebebe"/>
  <text x="13.50" y="17.40" font-size="4.4" text-anchor="middle" font-family="ui-monospace, SFMono-Regular, Menlo, monospace" fill="#ededed">TIM</text>
  <path d="M 8.02 31.83 A 7.75 7.75 0 1 1 18.98 31.83" fill="none" stroke="#888888" stroke-width="0.7" stroke-linecap="round"/>
  <circle cx="13.50" cy="26.35" r="5.95" fill="#565656" stroke="#919191" stroke-width="0.6"/>
  <text x="13.50" y="36.90" font-size="3" text-anchor="middle" fill="#888888">Time</text>
  <text x="33.50" y="17.40" font-size="4.4" text-anchor="middle" font-family="ui-monospace, SFMono-Regular, Menlo, monospace" fill="#ededed">GN</text>
  <path d="M 28.02 31.83 A 7.75 7.75 0 1 1 38.98 31.83" fill="none" stroke="#888888" stroke-width="0.7" stroke-linecap="round"/>
  <circle cx="33.50" cy="26.35" r="5.95" fill="#565656" stroke="#919191" stroke-width="0.6"/>
  <circle cx="39.76" cy="19.40" r="0.9" fill="#bebebe"/>
  <text x="33.50" y="36.90" font-size="3" text-anchor="middle" fill="#888888">Gain</text>
  <text x="53.50" y="17.40" font-size="4.4" text-anchor="middle" font-family="ui-monospace, SFMono-Regular, Menlo, monospace" fill="#ededed">FBK</text>
  <path d="M 48.02 31.83 A 7.75 7.75 0 1 1 58.98 31.83" fill="none" stroke="#888888" stroke-width="0.7" stroke-linecap="round"/>
  <circle cx="53.50" cy="26.35" r="5.95" fill="#565656" stroke="#919191" stroke-width="0.6"/>
  <circle cx="59.76" cy="19.40" r="0.9" fill="#bebebe"/>
  <text x="53.50" y="36.90" font-size="3" text-anchor="middle" fill="#888888">Feedback</text>
  <text x="73.50" y="17.40" font-size="4.4" text-anchor="middle" font-family="ui-monospace, SFMono-Regular, Menlo, monospace" fill="#ededed">SPR</text>
  <path d="M 68.02 31.83 A 7.75 7.75 0 1 1 78.98 31.83" fill="none" stroke="#888888" stroke-width="0.7" stroke-linecap="round"/>
  <circle cx="73.50" cy="26.35" r="5.95" fill="#565656" stroke="#919191" stroke-width="0.6"/>
  <text x="73.50" y="36.90" font-size="3" text-anchor="middle" fill="#888888">Spread</text>
  <text x="93.50" y="17.40" font-size="4.4" text-anchor="middle" font-family="ui-monospace, SFMono-Regular, Menlo, monospace" fill="#ededed">FCA</text>
  <path d="M 88.02 31.83 A 7.75 7.75 0 1 1 98.98 31.83" fill="none" stroke="#888888" stroke-width="0.7" stroke-linecap="round"/>
  <circle cx="93.50" cy="26.35" r="5.95" fill="#565656" stroke="#919191" stroke-width="0.6"/>
  <line x1="90.99" y1="28.86" x2="89.93" y2="29.92" stroke="#bebebe" stroke-width="0.7" stroke-linecap="round"/>
  <line x1="90.02" y1="27.04" x2="88.55" y2="27.34" stroke="#bebebe" stroke-width="0.7" stroke-linecap="round"/>
  <line x1="90.22" y1="24.99" x2="88.83" y2="24.42" stroke="#bebebe" stroke-width="0.7" stroke-linecap="round"/>
  <line x1="91.53" y1="23.40" x2="90.69" y2="22.15" stroke="#bebebe" stroke-width="0.7" stroke-linecap="round"/>
  <line x1="93.50" y1="22.80" x2="93.50" y2="21.30" stroke="#bebebe" stroke-width="0.7" stroke-linecap="round"/>
  <line x1="95.47" y1="23.40" x2="96.31" y2="22.15" stroke="#bebebe" stroke-width="0.7" stroke-linecap="round"/>
  <line x1="96.78" y1="24.99" x2="98.17" y2="24.42" stroke="#bebebe" stroke-width="0.7" stroke-linecap="round"/>
  <line x1="96.98" y1="27.04" x2="98.45" y2="27.34" stroke="#bebebe" stroke-width="0.7" stroke-linecap="round"/>
  <line x1="96.01" y1="28.86" x2="97.07" y2="29.92" stroke="#bebebe" stroke-width="0.7" stroke-linecap="round"/>
  <text x="93.50" y="36.90" font-size="3" text-anchor="middle" fill="#888888">Tap A</text>
  <text x="93.50" y="41.10" font-size="3" text-anchor="middle" fill="#888888">Delay</text>
  <text x="93.50" y="45.30" font-size="3" text-anchor="middle" fill="#888888">Factor</text>
  <text x="113.50" y="17.40" font-size="4.4" text-anchor="middle" font-family="ui-monospace, SFMono-Regular, Menlo, monospace" fill="#ededed">GNA</text>
  <path d="M 108.02 31.83 A 7.75 7.75 0 1 1 118.98 31.83" fill="none" stroke="#888888" stroke-width="0.7" stroke-linecap="round"/>
  <circle cx="113.50" cy="26.35" r="5.95" fill="#565656" stroke="#919191" stroke-width="0.6"/>
  <circle cx="119.76" cy="19.40" r="0.9" fill="#bebebe"/>
  <text x="113.50" y="36.90" font-size="3" text-anchor="middle" fill="#888888">Tap A Gain</text>
  <text x="13.50" y="51.30" font-size="4.4" text-anchor="middle" font-family="ui-monospace, SFMono-Regular, Menlo, monospace" fill="#ededed">FCB</text>
  <path d="M 8.02 65.73 A 7.75 7.75 0 1 1 18.98 65.73" fill="none" stroke="#888888" stroke-width="0.7" stroke-linecap="round"/>
  <circle cx="13.50" cy="60.25" r="5.95" fill="#565656" stroke="#919191" stroke-width="0.6"/>
  <line x1="10.99" y1="62.76" x2="9.93" y2="63.82" stroke="#bebebe" stroke-width="0.7" stroke-linecap="round"/>
  <line x1="10.02" y1="60.94" x2="8.55" y2="61.24" stroke="#bebebe" stroke-width="0.7" stroke-linecap="round"/>
  <line x1="10.22" y1="58.89" x2="8.83" y2="58.32" stroke="#bebebe" stroke-width="0.7" stroke-linecap="round"/>
  <line x1="11.53" y1="57.30" x2="10.69" y2="56.05" stroke="#bebebe" stroke-width="0.7" stroke-linecap="round"/>
  <line x1="13.50" y1="56.70" x2="13.50" y2="55.20" stroke="#bebebe" stroke-width="0.7" stroke-linecap="round"/>
  <line x1="15.47" y1="57.30" x2="16.31" y2="56.05" stroke="#bebebe" stroke-width="0.7" stroke-linecap="round"/>
  <line x1="16.78" y1="58.89" x2="18.17" y2="58.32" stroke="#bebebe" stroke-width="0.7" stroke-linecap="round"/>
  <line x1="16.98" y1="60.94" x2="18.45" y2="61.24" stroke="#bebebe" stroke-width="0.7" stroke-linecap="round"/>
  <line x1="16.01" y1="62.76" x2="17.07" y2="63.82" stroke="#bebebe" stroke-width="0.7" stroke-linecap="round"/>
  <text x="13.50" y="70.80" font-size="3" text-anchor="middle" fill="#888888">Tap B</text>
  <text x="13.50" y="75.00" font-size="3" text-anchor="middle" fill="#888888">Delay</text>
  <text x="13.50" y="79.20" font-size="3" text-anchor="middle" fill="#888888">Factor</text>
  <text x="33.50" y="51.30" font-size="4.4" text-anchor="middle" font-family="ui-monospace, SFMono-Regular, Menlo, monospace" fill="#ededed">GNB</text>
  <path d="M 28.02 65.73 A 7.75 7.75 0 1 1 38.98 65.73" fill="none" stroke="#888888" stroke-width="0.7" stroke-linecap="round"/>
  <circle cx="33.50" cy="60.25" r="5.95" fill="#565656" stroke="#919191" stroke-width="0.6"/>
  <circle cx="39.76" cy="53.30" r="0.9" fill="#bebebe"/>
  <text x="33.50" y="70.80" font-size="3" text-anchor="middle" fill="#888888">Tap B Gain</text>
  <text x="53.50" y="51.30" font-size="4.4" text-anchor="middle" font-family="ui-monospace, SFMono-Regular, Menlo, monospace" fill="#ededed">FCC</text>
  <path d="M 48.02 65.73 A 7.75 7.75 0 1 1 58.98 65.73" fill="none" stroke="#888888" stroke-width="0.7" stroke-linecap="round"/>
  <circle cx="53.50" cy="60.25" r="5.95" fill="#565656" stroke="#919191" stroke-width="0.6"/>
  <line x1="50.99" y1="62.76" x2="49.93" y2="63.82" stroke="#bebebe" stroke-width="0.7" stroke-linecap="round"/>
  <line x1="50.02" y1="60.94" x2="48.55" y2="61.24" stroke="#bebebe" stroke-width="0.7" stroke-linecap="round"/>
  <line x1="50.22" y1="58.89" x2="48.83" y2="58.32" stroke="#bebebe" stroke-width="0.7" stroke-linecap="round"/>
  <line x1="51.53" y1="57.30" x2="50.69" y2="56.05" stroke="#bebebe" stroke-width="0.7" stroke-linecap="round"/>
  <line x1="53.50" y1="56.70" x2="53.50" y2="55.20" stroke="#bebebe" stroke-width="0.7" stroke-linecap="round"/>
  <line x1="55.47" y1="57.30" x2="56.31" y2="56.05" stroke="#bebebe" stroke-width="0.7" stroke-linecap="round"/>
  <line x1="56.78" y1="58.89" x2="58.17" y2="58.32" stroke="#bebebe" stroke-width="0.7" stroke-linecap="round"/>
  <line x1="56.98" y1="60.94" x2="58.45" y2="61.24" stroke="#bebebe" stroke-width="0.7" stroke-linecap="round"/>
  <line x1="56.01" y1="62.76" x2="57.07" y2="63.82" stroke="#bebebe" stroke-width="0.7" stroke-linecap="round"/>
  <text x="53.50" y="70.80" font-size="3" text-anchor="middle" fill="#888888">Tap C</text>
  <text x="53.50" y="75.00" font-size="3" text-anchor="middle" fill="#888888">Delay</text>
  <text x="53.50" y="79.20" font-size="3" text-anchor="middle" fill="#888888">Factor</text>
  <text x="73.50" y="51.30" font-size="4.4" text-anchor="middle" font-family="ui-monospace, SFMono-Regular, Menlo, monospace" fill="#ededed">GNC</text>
  <path d="M 68.02 65.73 A 7.75 7.75 0 1 1 78.98 65.73" fill="none" stroke="#888888" stroke-width="0.7" stroke-linecap="round"/>
  <circle cx="73.50" cy="60.25" r="5.95" fill="#565656" stroke="#919191" stroke-width="0.6"/>
  <circle cx="79.76" cy="53.30" r="0.9" fill="#bebebe"/>
  <text x="73.50" y="70.80" font-size="3" text-anchor="middle" fill="#888888">Tap C Gain</text>
  <text x="93.50" y="51.30" font-size="4.4" text-anchor="middle" font-family="ui-monospace, SFMono-Regular, Menlo, monospace" fill="#ededed">XFD</text>
  <path d="M 88.02 65.73 A 7.75 7.75 0 1 1 98.98 65.73" fill="none" stroke="#888888" stroke-width="0.7" stroke-linecap="round"/>
  <circle cx="93.50" cy="60.25" r="5.95" fill="#565656" stroke="#919191" stroke-width="0.6"/>
  <text x="93.50" y="70.80" font-size="3" text-anchor="middle" fill="#888888" textLength="17.0" lengthAdjust="spacingAndGlyphs">Cross-Feedback</text>
  <text x="113.50" y="51.30" font-size="4.4" text-anchor="middle" font-family="ui-monospace, SFMono-Regular, Menlo, monospace" fill="#ededed">MIX</text>
  <path d="M 108.02 65.73 A 7.75 7.75 0 1 1 118.98 65.73" fill="none" stroke="#888888" stroke-width="0.7" stroke-linecap="round"/>
  <circle cx="113.50" cy="60.25" r="5.95" fill="#565656" stroke="#919191" stroke-width="0.6"/>
  <circle cx="119.76" cy="53.30" r="0.9" fill="#bebebe"/>
  <text x="113.50" y="70.80" font-size="3" text-anchor="middle" fill="#888888">Mix</text>
</svg>
