<svg xmlns="http://www.w3.org/2000/svg" viewBox="0 0 128 76.4" width="768" height="458" role="img" aria-label="Enhancing EQ front panel" font-family="ui-sans-serif, system-ui, sans-serif">
<title>Enhancing EQ (Enhancer)</title>
<rect width="128" height="76.4" fill="#d1b96a"/>
<text x="2.5" y="8.4" font-size="5.6" font-weight="600" fill="#100e08">Enhancer</text>
<text x="125.5" y="8.4" font-size="4.2" text-anchor="end" fill="#685c35">Processing</text>
<rect x="2.5" y="11.0" width="123.0" height="63.4" rx="1.5" fill="#e8d18d" stroke="#403a29" stroke-width="0.4"/>
  <text x="13.50" y="17.40" font-size="4.4" text-anchor="middle" font-family="ui-monospace, SFMono-Regular, Menlo, monospace" fill="#12100b">OGN</text>
  <path d="M 8.02 31.83 A 7.75 7.75 0 1 1 18.98 31.83" fill="none" stroke="#7f724d" stroke-width="0.7" stroke-linecap="round"/>
  <circle cx="13.50" cy="26.35" r="5.95" fill="#a99a6d" stroke="#6d6446" stroke-width="0.6"/>
  <circle cx="19.76" cy="19.40" r="0.9" fill="#403a29"/>
  <text x="13.50" y="36.90" font-size="3" text-anchor="middle" fill="#7f724d">Output</text>
  <text x="13.50" y="41.10" font-size="3" text-anchor="middle" fill="#7f724d">Gain</text>
  <text x="33.50" y="17.40" font-size="4.4" text-anchor="middle" font-family="ui-monospace, SFMono-Regular, Menlo, monospace" fill="#12100b">SPR</text>
  <path d="M 28.02 31.83 A 7.75 7.75 0 1 1 38.98 31.83" fill="none" stroke="#7f724d" stroke-width="0.7" stroke-linecap="round"/>
  <circle cx="33.50" cy="26.35" r="5.95" fill="#a99a6d" stroke="#6d6446" stroke-width="0.6"/>
  <circle cx="39.76" cy="19.40" r="0.9" fill="#403a29"/>
  <text x="33.50" y="36.90" font-size="3" text-anchor="middle" fill="#7f724d">Spread</text>
  <text x="53.50" y="17.40" font-size="4.4" text-anchor="middle" font-family="ui-monospace, SFMono-Regular, Menlo, monospace" fill="#12100b">BGN</text>
  <path d="M 48.02 31.83 A 7.75 7.75 0 1 1 58.98 31.83" fill="none" stroke="#7f724d" stroke-width="0.7" stroke-linecap="round"/>
  <circle cx="53.50" cy="26.35" r="5.95" fill="#a99a6d" stroke="#6d6446" stroke-width="0.6"/>
  <circle cx="59.76" cy="19.40" r="0.9" fill="#403a29"/>
  <text x="53.50" y="36.90" font-size="3" text-anchor="middle" fill="#7f724d">Bass Gain</text>
  <text x="73.50" y="17.40" font-size="4.4" text-anchor="middle" font-family="ui-monospace, SFMono-Regular, Menlo, monospace" fill="#12100b">BFR</text>
  <path d="M 68.02 31.83 A 7.75 7.75 0 1 1 78.98 31.83" fill="none" stroke="#7f724d" stroke-width="0.7" stroke-linecap="round"/>
  <circle cx="73.50" cy="26.35" r="5.95" fill="#a99a6d" stroke="#6d6446" stroke-width="0.6"/>
  <circle cx="79.76" cy="19.40" r="0.9" fill="#403a29"/>
  <text x="73.50" y="36.90" font-size="3" text-anchor="middle" fill="#7f724d">Bass</text>
  <text x="73.50" y="41.10" font-size="3" text-anchor="middle" fill="#7f724d">Frequency</text>
  <text x="93.50" y="17.40" font-size="4.4" text-anchor="middle" font-family="ui-monospace, SFMono-Regular, Menlo, monospace" fill="#12100b">MGN</text>
  <path d="M 88.02 31.83 A 7.75 7.75 0 1 1 98.98 31.83" fill="none" stroke="#7f724d" stroke-width="0.7" stroke-linecap="round"/>
  <circle cx="93.50" cy="26.35" r="5.95" fill="#a99a6d" stroke="#6d6446" stroke-width="0.6"/>
  <circle cx="99.76" cy="19.40" r="0.9" fill="#403a29"/>
  <text x="93.50" y="36.90" font-size="3" text-anchor="middle" fill="#7f724d">Mid Gain</text>
  <text x="113.50" y="17.40" font-size="4.4" text-anchor="middle" font-family="ui-monospace, SFMono-Regular, Menlo, monospace" fill="#12100b">MIQ</text>
  <path d="M 108.02 31.83 A 7.75 7.75 0 1 1 118.98 31.83" fill="none" stroke="#7f724d" stroke-width="0.7" stroke-linecap="round"/>
  <circle cx="113.50" cy="26.35" r="5.95" fill="#a99a6d" stroke="#6d6446" stroke-width="0.6"/>
  <circle cx="119.76" cy="19.40" r="0.9" fill="#403a29"/>
  <text x="113.50" y="36.90" font-size="3" text-anchor="middle" fill="#7f724d">Mid Q</text>
  <text x="13.50" y="47.10" font-size="4.4" text-anchor="middle" font-family="ui-monospace, SFMono-Regular, Menlo, monospace" fill="#12100b">HIG</text>
  <path d="M 8.02 61.53 A 7.75 7.75 0 1 1 18.98 61.53" fill="none" stroke="#7f724d" stroke-width="0.7" stroke-linecap="round"/>
  <circle cx="13.50" cy="56.05" r="5.95" fill="#a99a6d" stroke="#6d6446" stroke-width="0.6"/>
  <circle cx="19.76" cy="49.10" r="0.9" fill="#403a29"/>
  <text x="13.50" y="66.60" font-size="3" text-anchor="middle" fill="#7f724d">High Gain</text>
  <text x="33.50" y="47.10" font-size="4.4" text-anchor="middle" font-family="ui-monospace, SFMono-Regular, Menlo, monospace" fill="#12100b">HIF</text>
  <path d="M 28.02 61.53 A 7.75 7.75 0 1 1 38.98 61.53" fill="none" stroke="#7f724d" stroke-width="0.7" stroke-linecap="round"/>
  <circle cx="33.50" cy="56.05" r="5.95" fill="#a99a6d" stroke="#6d6446" stroke-width="0.6"/>
  <circle cx="39.76" cy="49.10" r="0.9" fill="#403a29"/>
  <text x="33.50" y="66.60" font-size="3" text-anchor="middle" fill="#7f724d">High</text>
  <text x="33.50" y="70.80" font-size="3" text-anchor="middle" fill="#7f724d">Frequency</text>
  <text x="53.50" y="47.10" font-size="4.4" text-anchor="middle" font-family="ui-monospace, SFMono-Regular, Menlo, monospace" fill="#12100b">SOL</text>
  <path d="M 48.02 61.53 A 7.75 7.75 0 1 1 58.98 61.53" fill="none" stroke="#7f724d" stroke-width="0.7" stroke-linecap="round"/>
  <circle cx="53.50" cy="56.05" r="5.95" fill="#a99a6d" stroke="#6d6446" stroke-width="0.6"/>
  <line x1="50.99" y1="58.56" x2="49.93" y2="59.62" stroke="#403a29" stroke-width="0.7" stroke-linecap="round"/>
  <line x1="56.01" y1="58.56" x2="57.07" y2="59.62" stroke="#403a29" stroke-width="0.7" stroke-linecap="round"/>
  <text x="53.50" y="66.60" font-size="3" text-anchor="middle" fill="#7f724d">Solo</text>
</svg>
