<svg xmlns="http://www.w3.org/2000/svg" viewBox="0 0 128 76.4" width="768" height="458" role="img" aria-label="Stereo Flanger front panel" font-family="ui-sans-serif, system-ui, sans-serif">
<title>Stereo Flanger (Flanger)</title>
<rect width="128" height="76.4" fill="#4b4b4b"/>
<text x="4" y="8.6" font-size="5.6" font-weight="600" fill="#f0f0f0">Flanger</text>
<text x="124" y="8.6" font-size="4.2" text-anchor="end" fill="#9c9c9c">Creative</text>
<rect x="4" y="11.2" width="120" height="0.5" fill="#d2a1dd"/>
  <text x="13.50" y="17.40" font-size="4.4" text-anchor="middle" font-family="ui-monospace, SFMono-Regular, Menlo, monospace" fill="#f0f0f0">SPD</text>
  <path d="M 8.02 31.83 A 7.75 7.75 0 1 1 18.98 31.83" fill="none" stroke="#9c9c9c" stroke-width="0.7" stroke-linecap="round"/>
  <circle cx="13.50" cy="26.35" r="5.95" fill="#8b0aa6" stroke="#b35fc5" stroke-width="0.6"/>
  <circle cx="19.76" cy="19.40" r="0.9" fill="#d2a1dd"/>
  <text x="13.50" y="36.90" font-size="3" text-anchor="middle" fill="#9c9c9c">Speed</text>
  <text x="33.50" y="17.40" font-size="4.4" text-anchor="middle" font-family="ui-monospace, SFMono-Regular, Menlo, monospace" fill="#f0f0f0">WDL</text>
  <path d="M 28.02 31.83 A 7.75 7.75 0 1 1 38.98 31.83" fill="none" stroke="#9c9c9c" stroke-width="0.7" stroke-linecap="round"/>
  <circle cx="33.50" cy="26.35" r="5.95" fill="#8b0aa6" stroke="#b35fc5" stroke-width="0.6"/>
  <circle cx="39.76" cy="19.40" r="0.9" fill="#d2a1dd"/>
  <text x="33.50" y="36.90" font-size="3" text-anchor="middle" fill="#9c9c9c">Width,</text>
  <text x="33.50" y="41.10" font-size="3" text-anchor="middle" fill="#9c9c9c">left</text>
  <text x="53.50" y="17.40" font-size="4.4" text-anchor="middle" font-family="ui-monospace, SFMono-Regular, Menlo, monospace" fill="#f0f0f0">WDR</text>
  <path d="M 48.02 31.83 A 7.75 7.75 0 1 1 58.98 31.83" fill="none" stroke="#9c9c9c" stroke-width="0.7" stroke-linecap="round"/>
  <circle cx="53.50" cy="26.35" r="5.95" fill="#8b0aa6" stroke="#b35fc5" stroke-width="0.6"/>
  <circle cx="59.76" cy="19.40" r="0.9" fill="#d2a1dd"/>
  <text x="53.50" y="36.90" font-size="3" text-anchor="middle" fill="#9c9c9c">Width,</text>
  <text x="53.50" y="41.10" font-size="3" text-anchor="middle" fill="#9c9c9c">right</text>
  <text x="73.50" y="17.40" font-size="4.4" text-anchor="middle" font-family="ui-monospace, SFMono-Regular, Menlo, monospace" fill="#f0f0f0">DLL</text>
  <path d="M 68.02 31.83 A 7.75 7.75 0 1 1 78.98 31.83" fill="none" stroke="#9c9c9c" stroke-width="0.7" stroke-linecap="round"/>
  <circle cx="73.50" cy="26.35" r="5.95" fill="#8b0aa6" stroke="#b35fc5" stroke-width="0.6"/>
  <text x="73.50" y="36.90" font-size="3" text-anchor="middle" fill="#9c9c9c">Delay,</text>
  <text x="73.50" y="41.10" font-size="3" text-anchor="middle" fill="#9c9c9c">left</text>
  <text x="93.50" y="17.40" font-size="4.4" text-anchor="middle" font-family="ui-monospace, SFMono-Regular, Menlo, monospace" fill="#f0f0f0">DLR</text>
  <path d="M 88.02 31.83 A 7.75 7.75 0 1 1 98.98 31.83" fill="none" stroke="#9c9c9c" stroke-width="0.7" stroke-linecap="round"/>
  <circle cx="93.50" cy="26.35" r="5.95" fill="#8b0aa6" stroke="#b35fc5" stroke-width="0.6"/>
  <text x="93.50" y="36.90" font-size="3" text-anchor="middle" fill="#9c9c9c">Delay,</text>
  <text x="93.50" y="41.10" font-size="3" text-anchor="middle" fill="#9c9c9c">right</text>
  <text x="113.50" y="17.40" font-size="4.4" text-anchor="middle" font-family="ui-monospace, SFMono-Regular, Menlo, monospace" fill="#f0f0f0">MIX</text>
  <path d="M 108.02 31.83 A 7.75 7.75 0 1 1 118.98 31.83" fill="none" stroke="#9c9c9c" stroke-width="0.7" stroke-linecap="round"/>
  <circle cx="113.50" cy="26.35" r="5.95" fill="#8b0aa6" stroke="#b35fc5" stroke-width="0.6"/>
  <circle cx="119.76" cy="19.40" r="0.9" fill="#d2a1dd"/>
  <text x="113.50" y="36.90" font-size="3" text-anchor="middle" fill="#9c9c9c">Mix</text>
  <text x="13.50" y="47.10" font-size="4.4" text-anchor="middle" font-family="ui-monospace, SFMono-Regular, Menlo, monospace" fill="#f0f0f0">LC</text>
  <path d="M 8.02 61.53 A 7.75 7.75 0 1 1 18.98 61.53" fill="none" stroke="#9c9c9c" stroke-width="0.7" stroke-linecap="round"/>
  <circle cx="13.50" cy="56.05" r="5.95" fill="#8b0aa6" stroke="#b35fc5" stroke-width="0.6"/>
  <circle cx="19.76" cy="49.10" r="0.9" fill="#d2a1dd"/>
  <text x="13.50" y="66.60" font-size="3" text-anchor="middle" fill="#9c9c9c">Low Cut</text>
  <text x="33.50" y="47.10" font-size="4.4" text-anchor="middle" font-family="ui-monospace, SFMono-Regular, Menlo, monospace" fill="#f0f0f0">HC</text>
  <path d="M 28.02 61.53 A 7.75 7.75 0 1 1 38.98 61.53" fill="none" stroke="#9c9c9c" stroke-width="0.7" stroke-linecap="round"/>
  <circle cx="33.50" cy="56.05" r="5.95" fill="#8b0aa6" stroke="#b35fc5" stroke-width="0.6"/>
  <circle cx="39.76" cy="49.10" r="0.9" fill="#d2a1dd"/>
  <text x="33.50" y="66.60" font-size="3" text-anchor="middle" fill="#9c9c9c">High Cut</text>
  <text x="53.50" y="47.10" font-size="4.4" text-anchor="middle" font-family="ui-monospace, SFMono-Regular, Menlo, monospace" fill="#f0f0f0">PHS</text>
  <path d="M 48.02 61.53 A 7.75 7.75 0 1 1 58.98 61.53" fill="none" stroke="#9c9c9c" stroke-width="0.7" stroke-linecap="round"/>
  <circle cx="53.50" cy="56.05" r="5.95" fill="#8b0aa6" stroke="#b35fc5" stroke-width="0.6"/>
  <text x="53.50" y="66.60" font-size="3" text-anchor="middle" fill="#9c9c9c">Phase</text>
  <text x="73.50" y="47.10" font-size="4.4" text-anchor="middle" font-family="ui-monospace, SFMono-Regular, Menlo, monospace" fill="#f0f0f0">FLC</text>
  <path d="M 68.02 61.53 A 7.75 7.75 0 1 1 78.98 61.53" fill="none" stroke="#9c9c9c" stroke-width="0.7" stroke-linecap="round"/>
  <circle cx="73.50" cy="56.05" r="5.95" fill="#8b0aa6" stroke="#b35fc5" stroke-width="0.6"/>
  <circle cx="79.76" cy="49.10" r="0.9" fill="#d2a1dd"/>
  <text x="73.50" y="66.60" font-size="3" text-anchor="middle" fill="#9c9c9c">Feedback</text>
  <text x="73.50" y="70.80" font-size="3" text-anchor="middle" fill="#9c9c9c">Low Cut</text>
  <text x="93.50" y="47.10" font-size="4.4" text-anchor="middle" font-family="ui-monospace, SFMono-Regular, Menlo, monospace" fill="#f0f0f0">FHC</text>
  <path d="M 88.02 61.53 A 7.75 7.75 0 1 1 98.98 61.53" fill="none" stroke="#9c9c9c" stroke-width="0.7" stroke-linecap="round"/>
  <circle cx="93.50" cy="56.05" r="5.95" fill="#8b0aa6" stroke="#b35fc5" stroke-width="0.6"/>
  <circle cx="99.76" cy="49.10" r="0.9" fill="#d2a1dd"/>
  <text x="93.50" y="66.60" font-size="3" text-anchor="middle" fill="#9c9c9c">Feedback</text>
  <text x="93.50" y="70.80" font-size="3" text-anchor="middle" fill="#9c9c9c">High Cut</text>
  <text x="113.50" y="47.10" font-size="4.4" text-anchor="middle" font-family="ui-monospace, SFMono-Regular, Menlo, monospace" fill="#f0f0f0">FD</text>
  <path d="M 108.02 61.53 A 7.75 7.75 0 1 1 118.98 61.53" fill="none" stroke="#9c9c9c" stroke-width="0.7" stroke-linecap="round"/>
  <circle cx="113.50" cy="56.05" r="5.95" fill="#8b0aa6" stroke="#b35fc5" stroke-width="0.6"/>
  <circle cx="119.76" cy="49.10" r="0.9" fill="#d2a1dd"/>
  <text x="113.50" y="66.60" font-size="3" text-anchor="middle" fill="#9c9c9c">Feedback</text>
</svg>
